<svg xmlns="http://www.w3.org/2000/svg" viewBox="0 0 24 24">
  <defs>
    <linearGradient id="logo-gradient" x1="0%" y1="0%" x2="100%" y2="100%">
      <stop offset="0%" stop-color="#3b82f6" />
      <stop offset="100%" stop-color="#9333ea" />
    </linearGradient>
  </defs>
  <rect width="24" height="24" rx="4" fill="url(#logo-gradient)" />
  <g transform="translate(3, 3) scale(0.75)">
    <path stroke-linecap="round" stroke-linejoin="round" stroke-width="1.5" stroke="white" fill="none" d="M12 14l9-5-9-5-9 5 9 5zm0 0l6.16-3.422a12.083 12.083 0 01.665 6.479A11.952 11.952 0 0012 20.055a11.952 11.952 0 00-6.824-2.998 12.078 12.078 0 01.665-6.479L12 14zm-4 6v-7.5l4-2.222 4 2.222V20M1 12l5.373 2.846M23 12l-5.373 2.846" />
  </g>
</svg>